# Blender v2.78 (sub 0) OBJ File: 'modeling_src.blend'
# www.blender.org
o Bomb_Sphere.001
v -0.210948 0.410961 -0.191342
v 0.228329 -0.444821 -0.000000
v -0.222035 0.432560 -0.191342
v -0.090581 0.472747 -0.135299
v 0.060958 0.428701 -0.250000
v 0.203216 0.319389 -0.326641
v 0.314536 0.161453 -0.353553
v 0.377971 -0.021063 -0.326641
v 0.383864 -0.200372 -0.250000
v 0.331316 -0.349176 -0.135299
v -0.040723 0.498339 -0.000000
v 0.153083 0.475989 -0.000000
v 0.323583 0.381174 -0.000000
v 0.444821 0.228329 -0.000000
v 0.498339 0.040723 -0.000000
v 0.475989 -0.153083 -0.000000
v 0.381174 -0.323583 -0.000000
v -0.090581 0.472747 0.135299
v 0.060957 0.428701 0.250000
v 0.203216 0.319389 0.326641
v 0.314536 0.161453 0.353553
v 0.377971 -0.021063 0.326641
v 0.383864 -0.200372 0.250000
v 0.331316 -0.349176 0.135299
v -0.210948 0.410961 0.191342
v -0.161453 0.314536 0.353553
v -0.087378 0.170226 0.461940
v 0.000000 -0.000000 0.500000
v 0.087378 -0.170226 0.461940
v 0.161453 -0.314536 0.353553
v 0.210949 -0.410961 0.191342
v -0.331316 0.349176 0.135299
v -0.383864 0.200372 0.250000
v -0.377971 0.021063 0.326641
v -0.314536 -0.161453 0.353553
v -0.203216 -0.319389 0.326641
v -0.060958 -0.428701 0.250000
v 0.090581 -0.472747 0.135299
v -0.381174 0.323583 -0.000000
v -0.475989 0.153083 -0.000000
v -0.498339 -0.040723 -0.000000
v -0.444821 -0.228329 -0.000000
v -0.323583 -0.381174 -0.000000
v -0.153083 -0.475989 -0.000000
v 0.040723 -0.498339 -0.000000
v -0.331316 0.349176 -0.135299
v -0.383864 0.200372 -0.250000
v -0.377971 0.021063 -0.326641
v -0.314536 -0.161453 -0.353553
v -0.203216 -0.319389 -0.326641
v -0.060958 -0.428701 -0.250000
v 0.090581 -0.472747 -0.135299
v -0.161453 0.314536 -0.353553
v -0.087378 0.170226 -0.461940
v 0.000000 -0.000000 -0.500000
v 0.087378 -0.170226 -0.461940
v 0.161453 -0.314536 -0.353553
v 0.210948 -0.410961 -0.191342
v -0.101667 0.494345 -0.135299
v -0.051810 0.519937 -0.000000
v -0.101667 0.494345 0.135299
v -0.222035 0.432560 0.191342
v -0.342403 0.370774 0.135299
v -0.392261 0.345182 -0.000000
v -0.342403 0.370774 -0.135299
v -0.222035 0.432560 -0.037365
v -0.198530 0.444625 -0.026421
v -0.188794 0.449623 -0.000000
v -0.198530 0.444625 0.026421
v -0.222035 0.432560 0.037365
v -0.245540 0.420494 0.026421
v -0.255276 0.415497 -0.000000
v -0.245540 0.420494 -0.026421
v -0.270210 0.527721 -0.037365
v -0.246705 0.539787 -0.026421
v -0.236969 0.544784 -0.000000
v -0.246705 0.539787 0.026421
v -0.270210 0.527721 0.037365
v -0.293715 0.515656 0.026421
v -0.303451 0.510658 -0.000000
v -0.293715 0.515656 -0.026421
v -0.265987 0.687897 -0.034593
v -0.243721 0.677770 -0.024461
v -0.234498 0.673575 -0.000000
v -0.243721 0.677770 0.024461
v -0.265987 0.687897 0.034593
v -0.288253 0.698025 0.024461
v -0.297476 0.702220 -0.000000
v -0.288253 0.698025 -0.024461
v -0.170533 0.788164 -0.030093
v -0.157286 0.773989 -0.016549
v -0.155549 0.769888 0.006689
v -0.166341 0.778262 0.026008
v -0.183339 0.794206 0.030093
v -0.196586 0.808381 0.016549
v -0.198323 0.812482 -0.006689
v -0.187532 0.804108 -0.026008
vn 0.5296 -0.3186 -0.7862
vn 0.2523 0.3327 -0.9087
vn -0.1705 0.8233 -0.5414
vn 0.5695 -0.6185 -0.5414
vn 0.4174 0.0111 -0.9087
vn 0.0498 0.6160 -0.7862
vn 0.8219 0.4219 0.3827
vn 0.5181 -0.8329 -0.1945
vn 0.8517 -0.4736 -0.2243
vn 0.8909 0.2542 -0.3764
vn 0.4595 0.8263 -0.3256
vn 0.3405 0.1748 -0.9239
vn 0.6194 -0.7809 -0.0805
vn 0.9393 -0.1083 -0.3256
vn 0.7258 0.5757 -0.3764
vn 0.1116 0.9681 -0.2243
vn 0.4595 0.8263 0.3256
vn 0.8219 0.4219 -0.3827
vn 0.6194 -0.7809 0.0805
vn 0.9393 -0.1083 0.3256
vn 0.7258 0.5757 0.3764
vn 0.1116 0.9681 0.2243
vn 0.8517 -0.4736 0.2243
vn 0.8909 0.2542 0.3764
vn 0.5181 -0.8329 0.1945
vn 0.5296 -0.3186 0.7862
vn 0.2523 0.3327 0.9087
vn -0.1705 0.8233 0.5414
vn 0.5695 -0.6185 0.5414
vn 0.4174 0.0111 0.9087
vn 0.0498 0.6160 0.7862
vn -0.3405 -0.1748 -0.9239
vn -0.5695 0.6185 0.5414
vn 0.1705 -0.8233 0.5414
vn -0.2523 -0.3327 0.9087
vn -0.5296 0.3186 0.7862
vn 0.3405 0.1748 0.9239
vn 0.3748 -0.9065 0.1945
vn -0.0498 -0.6160 0.7862
vn -0.4174 -0.0111 0.9087
vn -0.1116 -0.9681 0.2243
vn -0.7258 -0.5757 0.3764
vn -0.9393 0.1083 0.3256
vn -0.8219 -0.4219 -0.3827
vn 0.2734 -0.9585 0.0805
vn -0.4595 -0.8263 0.3256
vn -0.8909 -0.2542 0.3764
vn -0.8517 0.4736 0.2243
vn -0.8219 -0.4219 0.3827
vn 0.2734 -0.9585 -0.0805
vn -0.4595 -0.8263 -0.3256
vn -0.8909 -0.2542 -0.3764
vn -0.8517 0.4736 -0.2243
vn -0.1116 -0.9681 -0.2243
vn -0.7258 -0.5757 -0.3764
vn -0.9393 0.1083 -0.3256
vn -0.0498 -0.6160 -0.7862
vn -0.4174 -0.0111 -0.9087
vn -0.5695 0.6185 -0.5414
vn 0.1705 -0.8233 -0.5414
vn -0.2523 -0.3327 -0.9087
vn -0.5296 0.3186 -0.7862
vn -0.3405 -0.1748 0.9239
vn 0.3748 -0.9065 -0.1945
vn -0.4567 0.8896 0.0000
vn 0.3414 0.1728 -0.9239
vn 0.8243 0.4173 0.3827
vn -0.3414 -0.1728 0.9239
vn -0.8243 -0.4173 -0.3827
vn 0.8243 0.4173 -0.3827
vn 0.3414 0.1728 0.9239
vn -0.8243 -0.4173 0.3827
vn -0.3414 -0.1728 -0.9239
vn 0.4201 0.0046 0.9075
vn -0.9397 0.0293 0.3407
vn -0.4040 0.0265 -0.9144
vn 0.4157 0.0039 -0.9095
vn 0.9392 -0.0154 0.3432
vn -0.4315 0.0226 0.9018
vn -0.9334 0.0318 -0.3574
vn 0.9345 -0.0179 -0.3554
vn 0.7682 -0.6182 -0.1665
vn 0.3232 -0.2122 0.9223
vn -0.7273 0.6645 0.1716
vn -0.1031 0.1423 -0.9844
vn 0.4619 -0.3479 -0.8159
vn 0.7321 -0.5695 0.3737
vn -0.2798 0.2979 0.9127
vn -0.5972 0.5586 -0.5757
vn 0.6917 0.7182 0.0751
vn 0.4157 0.0039 0.9095
vn -0.9334 0.0318 0.3574
vn -0.4315 0.0226 -0.9018
vn 0.4201 0.0046 -0.9075
vn 0.9345 -0.0179 0.3554
vn -0.4040 0.0265 0.9144
vn -0.9397 0.0293 -0.3407
vn 0.9392 -0.0154 -0.3432
vn 0.7061 -0.6039 -0.3698
vn 0.1292 -0.1146 0.9850
vn -0.7017 0.6094 0.3691
vn -0.2957 0.2674 -0.9171
vn 0.3050 -0.2491 -0.9192
vn 0.6118 -0.5416 0.5765
vn -0.4365 0.3740 0.8183
vn -0.7021 0.6089 -0.3692
s off
f 57//1 8//1 9//1
f 54//2 7//2 55//2
f 1//3 5//3 53//3
f 57//4 10//4 58//4
f 55//5 8//5 56//5
f 54//6 5//6 6//6
f 18//7 60//7 61//7
f 2//8 58//8 10//8
f 10//9 16//9 17//9
f 8//10 14//10 15//10
f 5//11 13//11 6//11
f 4//12 3//12 59//12
f 2//13 10//13 17//13
f 8//14 16//14 9//14
f 6//15 14//15 7//15
f 4//16 12//16 5//16
f 12//17 20//17 13//17
f 4//18 60//18 11//18
f 2//19 17//19 24//19
f 15//20 23//20 16//20
f 13//21 21//21 14//21
f 11//22 19//22 12//22
f 16//23 24//23 17//23
f 15//24 21//24 22//24
f 2//25 24//25 31//25
f 22//26 30//26 23//26
f 20//27 28//27 21//27
f 19//28 25//28 26//28
f 24//29 30//29 31//29
f 21//30 29//30 22//30
f 19//31 27//31 20//31
f 1//32 65//32 3//32
f 26//33 32//33 33//33
f 30//34 38//34 31//34
f 28//35 36//35 29//35
f 26//36 34//36 27//36
f 18//37 62//37 25//37
f 2//38 31//38 38//38
f 30//39 36//39 37//39
f 27//40 35//40 28//40
f 38//41 44//41 45//41
f 35//42 43//42 36//42
f 33//43 41//43 34//43
f 39//44 65//44 46//44
f 2//45 38//45 45//45
f 36//46 44//46 37//46
f 34//47 42//47 35//47
f 32//48 40//48 33//48
f 32//49 64//49 39//49
f 2//50 45//50 52//50
f 43//51 51//51 44//51
f 41//52 49//52 42//52
f 40//53 46//53 47//53
f 44//54 52//54 45//54
f 42//55 50//55 43//55
f 40//56 48//56 41//56
f 51//57 56//57 57//57
f 48//58 55//58 49//58
f 46//59 53//59 47//59
f 52//60 57//60 58//60
f 49//61 56//61 50//61
f 47//62 54//62 48//62
f 25//63 63//63 32//63
f 2//64 52//64 58//64
f 59//65 68//65 60//65
f 60//65 69//65 61//65
f 61//65 70//65 62//65
f 63//65 70//65 71//65
f 63//65 72//65 64//65
f 65//65 66//65 3//65
f 65//65 72//65 73//65
f 3//65 67//65 59//65
f 67//66 74//66 75//66
f 68//67 77//67 69//67
f 70//68 79//68 71//68
f 73//69 80//69 81//69
f 68//70 75//70 76//70
f 69//71 78//71 70//71
f 71//72 80//72 72//72
f 66//73 81//73 74//73
f 77//74 86//74 78//74
f 79//75 88//75 80//75
f 74//76 89//76 82//76
f 75//77 82//77 83//77
f 76//78 85//78 77//78
f 78//79 87//79 79//79
f 81//80 88//80 89//80
f 76//81 83//81 84//81
f 84//82 91//82 92//82
f 85//83 94//83 86//83
f 88//84 95//84 96//84
f 82//85 97//85 90//85
f 83//86 90//86 91//86
f 84//87 93//87 85//87
f 86//88 95//88 87//88
f 89//89 96//89 97//89
f 94//90 92//90 90//90
f 57//1 56//1 8//1
f 54//2 6//2 7//2
f 1//3 4//3 5//3
f 57//4 9//4 10//4
f 55//5 7//5 8//5
f 54//6 53//6 5//6
f 18//7 11//7 60//7
f 10//9 9//9 16//9
f 8//10 7//10 14//10
f 5//11 12//11 13//11
f 4//12 1//12 3//12
f 8//14 15//14 16//14
f 6//15 13//15 14//15
f 4//16 11//16 12//16
f 12//17 19//17 20//17
f 4//18 59//18 60//18
f 15//20 22//20 23//20
f 13//21 20//21 21//21
f 11//22 18//22 19//22
f 16//23 23//23 24//23
f 15//24 14//24 21//24
f 22//26 29//26 30//26
f 20//27 27//27 28//27
f 19//28 18//28 25//28
f 24//29 23//29 30//29
f 21//30 28//30 29//30
f 19//31 26//31 27//31
f 1//32 46//32 65//32
f 26//33 25//33 32//33
f 30//34 37//34 38//34
f 28//35 35//35 36//35
f 26//36 33//36 34//36
f 18//37 61//37 62//37
f 30//39 29//39 36//39
f 27//40 34//40 35//40
f 38//41 37//41 44//41
f 35//42 42//42 43//42
f 33//43 40//43 41//43
f 39//44 64//44 65//44
f 36//46 43//46 44//46
f 34//47 41//47 42//47
f 32//48 39//48 40//48
f 32//49 63//49 64//49
f 43//51 50//51 51//51
f 41//52 48//52 49//52
f 40//53 39//53 46//53
f 44//54 51//54 52//54
f 42//55 49//55 50//55
f 40//56 47//56 48//56
f 51//57 50//57 56//57
f 48//58 54//58 55//58
f 46//59 1//59 53//59
f 52//60 51//60 57//60
f 49//61 55//61 56//61
f 47//62 53//62 54//62
f 25//63 62//63 63//63
f 59//65 67//65 68//65
f 60//65 68//65 69//65
f 61//65 69//65 70//65
f 63//65 62//65 70//65
f 63//65 71//65 72//65
f 65//65 73//65 66//65
f 65//65 64//65 72//65
f 3//65 66//65 67//65
f 67//66 66//66 74//66
f 68//67 76//67 77//67
f 70//68 78//68 79//68
f 73//69 72//69 80//69
f 68//70 67//70 75//70
f 69//71 77//71 78//71
f 71//72 79//72 80//72
f 66//73 73//73 81//73
f 77//91 85//91 86//91
f 79//92 87//92 88//92
f 74//93 81//93 89//93
f 75//94 74//94 82//94
f 76//95 84//95 85//95
f 78//96 86//96 87//96
f 81//97 80//97 88//97
f 76//98 75//98 83//98
f 84//99 83//99 91//99
f 85//100 93//100 94//100
f 88//101 87//101 95//101
f 82//102 89//102 97//102
f 83//103 82//103 90//103
f 84//104 92//104 93//104
f 86//105 94//105 95//105
f 89//106 88//106 96//106
f 90//90 97//90 94//90
f 96//90 95//90 94//90
f 94//90 93//90 92//90
f 92//90 91//90 90//90
f 97//90 96//90 94//90
