# Blender v2.78 (sub 0) OBJ File: 'modeling_src.blend'
# www.blender.org
o Bullet_Cylinder
v -0.198537 -0.000000 -0.054234
v 0.304474 -0.000000 -0.054234
v -0.198537 -0.038349 -0.038349
v 0.304474 -0.038349 -0.038349
v -0.198537 -0.054234 -0.000000
v 0.304474 -0.054234 -0.000000
v -0.198537 -0.038349 0.038349
v 0.304474 -0.038349 0.038349
v -0.198537 0.000000 0.054234
v 0.304474 0.000000 0.054234
v -0.198537 0.038349 0.038349
v 0.304474 0.038349 0.038349
v -0.198537 0.054234 -0.000000
v 0.304474 0.054234 -0.000000
v -0.198537 0.038349 -0.038349
v 0.304474 0.038349 -0.038349
v 0.304474 -0.000000 -0.048884
v 0.304474 -0.034566 -0.034566
v 0.304474 -0.048884 -0.000000
v 0.304474 -0.034566 0.034566
v 0.304474 0.000000 0.048884
v 0.304474 0.034566 0.034566
v 0.304474 0.048884 -0.000000
v 0.304474 0.034566 -0.034566
v 0.308057 -0.000000 -0.048884
v 0.308057 -0.034566 -0.034566
v 0.308057 -0.048884 -0.000000
v 0.308057 -0.034566 0.034566
v 0.308057 0.000000 0.048884
v 0.308057 0.034566 0.034566
v 0.308057 0.048884 -0.000000
v 0.308057 0.034566 -0.034566
v 0.308057 -0.000000 -0.054470
v 0.308057 -0.038516 -0.038516
v 0.308057 -0.054470 -0.000000
v 0.308057 -0.038516 0.038516
v 0.308057 0.000000 0.054470
v 0.308057 0.038516 0.038516
v 0.308057 0.054470 -0.000000
v 0.308057 0.038516 -0.038517
v 0.311275 -0.000000 -0.054470
v 0.311275 -0.038516 -0.038516
v 0.311275 -0.054470 -0.000000
v 0.311275 -0.038516 0.038516
v 0.311275 0.000000 0.054470
v 0.311275 0.038516 0.038516
v 0.311275 0.054470 -0.000000
v 0.311275 0.038516 -0.038517
v 0.311275 -0.000000 -0.054470
v 0.311275 -0.038516 -0.038516
v 0.311275 -0.054470 -0.000000
v 0.311275 -0.038516 0.038516
v 0.311275 0.000000 0.054470
v 0.311275 0.038516 0.038516
v 0.311275 0.054470 -0.000000
v 0.311275 0.038516 -0.038517
v 0.311275 -0.000000 -0.000000
v 0.311275 -0.000000 -0.000000
v 0.311275 -0.000000 -0.000000
v 0.311275 -0.000000 -0.000000
v 0.311275 -0.000000 -0.000000
v 0.311275 -0.000000 -0.000000
v 0.311275 -0.000000 -0.000000
v 0.311275 -0.000000 -0.000000
v 0.311275 -0.000000 -0.000000
v 0.311275 -0.000000 -0.000000
v 0.311275 -0.000000 -0.000000
v 0.311275 -0.000000 -0.000000
v 0.311275 -0.000000 -0.000000
v 0.311275 -0.000000 -0.000000
v 0.311275 -0.000000 -0.000000
v 0.311275 -0.000000 -0.000000
v 0.311275 0.012414 -0.012414
v 0.311275 -0.000000 0.017556
v 0.311275 -0.012414 -0.012414
v 0.311275 -0.000000 -0.017556
v 0.311275 0.012414 0.012414
v 0.311275 -0.017556 -0.000000
v 0.311275 0.017556 -0.000000
v 0.311275 -0.012414 0.012414
v -0.237828 -0.000000 -0.039859
v -0.237828 -0.028184 -0.028185
v -0.237828 -0.039859 -0.000000
v -0.237828 -0.028184 0.028184
v -0.237828 -0.000000 0.039859
v -0.237828 0.028184 0.028184
v -0.237828 0.039859 -0.000000
v -0.237828 0.028184 -0.028185
v -0.281031 -0.002166 -0.040538
v -0.281031 -0.030350 -0.028864
v -0.281031 -0.042025 -0.000679
v -0.281031 -0.030350 0.027505
v -0.281031 -0.002166 0.039179
v -0.281031 0.026019 0.027505
v -0.281032 0.037693 -0.000680
v -0.281031 0.026019 -0.028864
v -0.281031 -0.002166 -0.039068
v -0.281031 -0.029310 -0.027824
v -0.281031 -0.040554 -0.000679
v -0.281031 -0.029310 0.026465
v -0.281031 -0.002166 0.037709
v -0.281031 0.024979 0.026465
v -0.281032 0.036222 -0.000680
v -0.281031 0.024979 -0.027824
v -0.435164 -0.002166 -0.007395
v -0.435164 -0.006914 -0.005428
v -0.435164 -0.008881 -0.000679
v -0.435164 -0.006914 0.004069
v -0.435164 -0.002166 0.006036
v -0.435164 0.002583 0.004069
v -0.435164 0.004550 -0.000679
v -0.435164 0.002583 -0.005428
v -0.355119 0.019581 0.021067
v -0.355119 -0.032920 -0.000679
v -0.355119 0.028589 -0.000680
v -0.355119 -0.023912 0.021067
v -0.355119 -0.002166 -0.031434
v -0.355119 0.019581 -0.022426
v -0.355119 -0.002166 0.030075
v -0.355119 -0.023912 -0.022426
vn 0.0000 -0.9239 0.3827
vn 0.0000 -0.3827 0.9239
vn -0.0000 0.3827 0.9239
vn 0.0000 -0.3827 -0.9239
vn -0.0000 0.9239 -0.3827
vn -0.0000 0.3827 -0.9239
vn 1.0000 0.0000 0.0000
vn 0.0000 -0.9239 -0.3827
vn -1.0000 0.0000 0.0000
vn 0.0000 0.9239 0.3827
vn 0.0000 0.0000 1.0000
vn -0.3202 -0.3625 -0.8752
vn -0.3202 -0.3625 0.8752
vn 0.0000 -1.0000 0.0000
vn -0.1785 -0.9839 0.0000
vn -0.3202 -0.8752 0.3625
vn -0.3202 -0.8752 -0.3625
vn -0.3202 0.8752 -0.3625
vn -0.3202 0.3625 -0.8752
vn -0.0403 0.9231 -0.3824
vn -0.3202 0.8752 0.3625
vn -0.3202 0.3625 0.8752
vn 0.0523 -0.9226 -0.3822
vn 0.0047 -0.3827 0.9239
vn 0.0337 -0.3825 -0.9234
vn -0.0047 0.3827 -0.9239
vn -0.0337 0.3825 0.9234
vn -0.0523 0.9226 0.3822
vn 0.0403 -0.9231 0.3824
vn -0.0948 -0.9197 -0.3810
vn -0.2674 -0.8902 -0.3688
vn -0.0948 0.9197 0.3810
vn -0.2674 -0.8902 0.3688
vn -0.2674 0.8902 -0.3688
vn -0.2674 -0.3688 0.8902
vn -0.2674 -0.3688 -0.8902
vn -0.2674 0.3688 -0.8902
vn -0.2674 0.3688 0.8902
vn -0.2674 0.8902 0.3688
vn -0.0948 0.3810 0.9197
vn -0.0948 0.3810 -0.9197
vn -0.0948 -0.3810 -0.9197
vn -0.0948 -0.3810 0.9197
vn -0.0948 0.9197 -0.3810
vn -0.0948 -0.9197 0.3810
vn -0.0250 0.9997 0.0000
vn 0.0125 -0.9999 0.0000
vn -0.2674 -0.3687 0.8902
s off
f 8//1 5//1 6//1
f 10//2 7//2 8//2
f 12//3 9//3 10//3
f 25//4 18//4 17//4
f 14//5 15//5 13//5
f 2//6 15//6 16//6
f 20//7 10//7 8//7
f 2//7 18//7 4//7
f 22//7 10//7 21//7
f 6//7 20//7 8//7
f 4//7 19//7 6//7
f 14//7 24//7 16//7
f 16//7 17//7 2//7
f 22//7 14//7 12//7
f 19//8 26//8 27//8
f 29//9 38//9 30//9
f 24//6 25//6 17//6
f 21//3 30//3 22//3
f 27//9 34//9 35//9
f 22//10 31//10 23//10
f 19//1 28//1 20//1
f 24//5 31//5 32//5
f 28//2 21//2 20//2
f 30//9 39//9 31//9
f 28//9 35//9 36//9
f 31//9 40//9 32//9
f 29//9 36//9 37//9
f 25//9 34//9 26//9
f 32//9 33//9 25//9
f 38//10 47//10 39//10
f 34//8 43//8 35//8
f 35//1 44//1 36//1
f 39//5 48//5 40//5
f 36//2 45//2 37//2
f 33//4 42//4 34//4
f 40//6 41//6 33//6
f 37//3 46//3 38//3
f 43//11 50//11 51//11
f 48//11 55//11 56//11
f 45//11 52//11 53//11
f 74//7 60//7 61//7
f 42//11 49//11 50//11
f 41//11 56//11 49//11
f 46//11 53//11 54//11
f 78//7 50//7 75//7
f 47//11 54//11 55//11
f 43//11 52//11 44//11
f 3//12 81//12 1//12
f 75//7 57//7 58//7
f 54//7 74//7 77//7
f 7//13 85//13 84//13
f 79//7 62//7 63//7
f 80//14 59//14 60//14
f 73//15 63//15 64//15
f 7//16 83//16 5//16
f 63//11 70//11 71//11
f 78//9 58//9 59//9
f 60//11 67//11 68//11
f 64//11 71//11 72//11
f 61//11 68//11 69//11
f 58//11 65//11 66//11
f 80//7 53//7 52//7
f 77//9 61//9 62//9
f 62//11 69//11 70//11
f 49//7 75//7 50//7
f 64//11 65//11 57//11
f 55//7 73//7 56//7
f 80//7 51//7 78//7
f 55//7 77//7 79//7
f 59//11 66//11 67//11
f 49//7 73//7 76//7
f 76//9 64//9 57//9
f 3//17 83//17 82//17
f 13//18 88//18 87//18
f 1//19 88//19 15//19
f 88//20 95//20 87//20
f 13//21 86//21 11//21
f 11//22 85//22 9//22
f 83//23 90//23 82//23
f 84//24 93//24 92//24
f 82//25 89//25 81//25
f 81//26 96//26 88//26
f 85//27 94//27 93//27
f 90//9 99//9 98//9
f 86//28 95//28 94//28
f 83//29 92//29 91//29
f 90//9 97//9 89//9
f 96//9 97//9 104//9
f 94//9 101//9 93//9
f 98//30 114//30 120//30
f 95//9 102//9 94//9
f 91//9 100//9 99//9
f 96//9 103//9 95//9
f 93//9 100//9 92//9
f 114//31 106//31 120//31
f 103//32 113//32 102//32
f 108//33 114//33 116//33
f 112//34 115//34 118//34
f 109//35 116//35 119//35
f 120//36 105//36 117//36
f 117//37 112//37 118//37
f 113//38 109//38 119//38
f 115//39 110//39 113//39
f 4//4 1//4 2//4
f 4//8 5//8 3//8
f 102//40 119//40 101//40
f 97//41 118//41 104//41
f 97//42 120//42 117//42
f 101//43 116//43 100//43
f 103//44 118//44 115//44
f 99//45 116//45 114//45
f 108//9 111//9 112//9
f 14//10 11//10 12//10
f 8//1 7//1 5//1
f 10//2 9//2 7//2
f 12//3 11//3 9//3
f 25//4 26//4 18//4
f 14//5 16//5 15//5
f 2//6 1//6 15//6
f 20//7 21//7 10//7
f 2//7 17//7 18//7
f 22//7 12//7 10//7
f 6//7 19//7 20//7
f 4//7 18//7 19//7
f 14//7 23//7 24//7
f 16//7 24//7 17//7
f 22//7 23//7 14//7
f 19//8 18//8 26//8
f 29//9 37//9 38//9
f 24//6 32//6 25//6
f 21//3 29//3 30//3
f 27//9 26//9 34//9
f 22//10 30//10 31//10
f 19//1 27//1 28//1
f 24//5 23//5 31//5
f 28//2 29//2 21//2
f 30//9 38//9 39//9
f 28//9 27//9 35//9
f 31//9 39//9 40//9
f 29//9 28//9 36//9
f 25//9 33//9 34//9
f 32//9 40//9 33//9
f 38//10 46//10 47//10
f 34//8 42//8 43//8
f 35//1 43//1 44//1
f 39//5 47//5 48//5
f 36//2 44//2 45//2
f 33//4 41//4 42//4
f 40//6 48//6 41//6
f 37//3 45//3 46//3
f 43//11 42//11 50//11
f 48//11 47//11 55//11
f 45//11 44//11 52//11
f 74//7 80//7 60//7
f 42//11 41//11 49//11
f 41//11 48//11 56//11
f 46//11 45//11 53//11
f 78//7 51//7 50//7
f 47//11 46//11 54//11
f 43//11 51//11 52//11
f 3//12 82//12 81//12
f 75//7 76//7 57//7
f 54//7 53//7 74//7
f 7//13 9//13 85//13
f 79//7 77//7 62//7
f 80//7 78//7 59//7
f 73//7 79//7 63//7
f 7//16 84//16 83//16
f 63//46 62//46 70//46
f 78//7 75//7 58//7
f 60//47 59//47 67//47
f 64//47 63//47 71//47
f 61//11 60//11 68//11
f 58//11 57//11 65//11
f 80//7 74//7 53//7
f 77//7 74//7 61//7
f 62//11 61//11 69//11
f 49//7 76//7 75//7
f 64//11 72//11 65//11
f 55//7 79//7 73//7
f 80//7 52//7 51//7
f 55//7 54//7 77//7
f 59//46 58//46 66//46
f 49//7 56//7 73//7
f 76//7 73//7 64//7
f 3//17 5//17 83//17
f 13//18 15//18 88//18
f 1//19 81//19 88//19
f 88//20 96//20 95//20
f 13//21 87//21 86//21
f 11//22 86//22 85//22
f 83//23 91//23 90//23
f 84//24 85//24 93//24
f 82//25 90//25 89//25
f 81//26 89//26 96//26
f 85//27 86//27 94//27
f 90//9 91//9 99//9
f 86//28 87//28 95//28
f 83//29 84//29 92//29
f 90//9 98//9 97//9
f 96//9 89//9 97//9
f 94//9 102//9 101//9
f 98//30 99//30 114//30
f 95//9 103//9 102//9
f 91//9 92//9 100//9
f 96//9 104//9 103//9
f 93//9 101//9 100//9
f 114//31 107//31 106//31
f 103//32 115//32 113//32
f 108//33 107//33 114//33
f 112//34 111//34 115//34
f 109//48 108//48 116//48
f 120//36 106//36 105//36
f 117//37 105//37 112//37
f 113//38 110//38 109//38
f 115//39 111//39 110//39
f 4//4 3//4 1//4
f 4//8 6//8 5//8
f 102//40 113//40 119//40
f 97//41 117//41 118//41
f 97//42 98//42 120//42
f 101//43 119//43 116//43
f 103//44 104//44 118//44
f 99//45 100//45 116//45
f 112//9 105//9 108//9
f 106//9 107//9 108//9
f 108//9 109//9 110//9
f 110//9 111//9 108//9
f 105//9 106//9 108//9
f 14//10 13//10 11//10
